<svg xmlns="http://www.w3.org/2000/svg" viewBox="0 0 435.582 349.361">
  <defs>
    <style>
      .cls-1 {
        fill: #fff;
      }

      .cls-2, .cls-3, .cls-5 {
        fill: none;
        stroke: #fff;
        stroke-linecap: round;
        stroke-miterlimit: 10;
      }

      .cls-2 {
        stroke-width: 6px;
      }

      .cls-3, .cls-5 {
        stroke-width: 4px;
      }

      .cls-3, .cls-4 {
        opacity: 0.6;
      }
    </style>
  </defs>
  <g id="illustration_4" data-name="illustration 4" transform="translate(2.923 0.913)">
    <path id="Fill_1" data-name="Fill 1" class="cls-1" d="M17.643,37.919A17.487,17.487,0,0,1,4.569,32.292a17.621,17.621,0,0,1-4.5-13.615A20.84,20.84,0,0,1,20.4,0h.027A17.408,17.408,0,0,1,37.994,19.228,20.853,20.853,0,0,1,17.643,37.919ZM20.43,6.089A14.609,14.609,0,0,0,6.165,19.209,11.672,11.672,0,0,0,9.08,28.157a11.514,11.514,0,0,0,8.575,3.64A14.613,14.613,0,0,0,31.919,18.659a11.587,11.587,0,0,0-2.91-8.93A11.459,11.459,0,0,0,20.43,6.089Z" transform="translate(311.242 242.938)"/>
    <path id="Fill_3" data-name="Fill 3" class="cls-1" d="M3.051,6.108H33.229a3.054,3.054,0,1,0,0-6.108H3.051a3.054,3.054,0,0,0,0,6.108" transform="translate(45.265 131.661)"/>
    <path id="Fill_5" data-name="Fill 5" class="cls-1" d="M77.012,3.053A3.051,3.051,0,0,0,73.961,0H3.055a3.053,3.053,0,1,0,0,6.107H73.961a3.051,3.051,0,0,0,3.051-3.053" transform="translate(13.916 152.557)"/>
    <path id="Fill_7" data-name="Fill 7" class="cls-1" d="M55.244,3.053A3.051,3.051,0,0,0,52.193,0H3.055a3.053,3.053,0,1,0,0,6.107H52.193a3.051,3.051,0,0,0,3.051-3.053" transform="translate(150.141 211.138)"/>
    <path id="Fill_9" data-name="Fill 9" class="cls-1" d="M31.119,0H3.055a3.052,3.052,0,1,0,0,6.1H31.119a3.052,3.052,0,0,0,0-6.1" transform="translate(29.476 173.984)"/>
    <path id="Stroke_11" data-name="Stroke 11" class="cls-2" d="M0,0C15.213,0,15.213,9.155,30.437,9.155S45.661,0,60.884,0,76.107,9.155,91.331,9.155,106.554,0,121.787,0s15.223,9.155,30.456,9.155" transform="translate(29.609 291.53)"/>
    <path id="Stroke_13" data-name="Stroke 13" class="cls-2" d="M0,9.155C15.223,9.155,15.223,0,30.446,0S45.67,9.155,60.893,9.155,76.117,0,91.35,0s15.223,9.155,30.456,9.155" transform="translate(182.757 291.53)"/>
    <path id="Stroke_15" data-name="Stroke 15" class="cls-2" d="M0,9.155C15.223,9.155,15.223,0,30.446,0S45.67,9.155,60.893,9.155,76.117,0,91.35,0s15.223,9.155,30.456,9.155" transform="translate(304.38 291.698)"/>
    <path id="Fill_17" data-name="Fill 17" class="cls-1" d="M218.05,166.712a31.168,31.168,0,0,1-31.5-34.493c.077-.924.216-1.945.424-3.122h-3.635a7.2,7.2,0,0,1-5.431-2.241,6.47,6.47,0,0,1-1.034-1.49c-3.833,2.545-8.343,3.731-14.193,3.731H85.54c.024,1.337-.009,2.532-.1,3.655-1.654,18.726-18.234,33.961-36.961,33.961a31.169,31.169,0,0,1-31.5-34.493c.076-.9.2-1.867.414-3.122H6.327A5.99,5.99,0,0,1,.461,124.7c-.843-2.606-.524-6.418.921-11.024a69.839,69.839,0,0,1,7.682-15.8A120.944,120.944,0,0,1,23.293,79.745,146.874,146.874,0,0,1,43.854,61.709c.009-.047.018-.1.027-.144A3.093,3.093,0,0,1,44.018,61l2.438-6.863,1.633-4.591c.145-.378.328-.755.49-1.087h-.218l.436-1.294a7.024,7.024,0,0,1,6.672-4.809H80.947l8.554-.022h7.663a9.8,9.8,0,0,1-2.939-3.514,19.721,19.721,0,0,1-1.4-6.938,32.058,32.058,0,0,1,.972-8.595l8.033-2.078.043-.011a46.963,46.963,0,0,1,7.018-.465,106.4,106.4,0,0,1,22.543,2.695,3.449,3.449,0,0,1,.436.1,14.049,14.049,0,0,1-.273-2.023,12.738,12.738,0,0,1,.827-4.427l5.323,3.459a2.173,2.173,0,0,0-.055.62,5.757,5.757,0,0,0,1.786,4.177,6.164,6.164,0,0,0,4.057,1.386c.159,0,.321-.005.481-.015,2.861-.2,10.024-2.667,15.53-4.7,6.846-2.532,13.606-5.308,16.991-6.816a13.94,13.94,0,0,1,5.75-1.208,17.491,17.491,0,0,1,6.537,1.328c2.527-1,4.725-2.588,4.8-3.46.106-1.28-1.609-2.511-2.351-2.981l-38.931,7.647a3.038,3.038,0,0,1-3.592-2.393,3,3,0,0,1,.449-2.281,3.042,3.042,0,0,1,1.957-1.308l1.469-.294,2.7-.522a.011.011,0,0,0,.011-.011l12.887-2.524,22.464-4.427A12.161,12.161,0,0,1,199.025,0c5.581,0,9.468.919,10.3,5.406l.054.239c1.114,4.613.181,15.3-1.72,19.721-.973,2.293-3.293,3.361-7.3,3.361-.722,0-1.47-.029-2.286-.087,1.395,4.375,2.956,9.216,4.4,13.631,3.372,10.313,6.017,18.465,6.845,21.767a31.7,31.7,0,0,1,.909,9.979,28.2,28.2,0,0,1-2.389,9.351,40.891,40.891,0,0,1,13.985-2.47c19.2,0,30.654,7.834,37.136,25.4a2.98,2.98,0,0,1-.37,2.806,3.04,3.04,0,0,1-2.492,1.317h-.005c-.307,0-3.12.022-7.342.032a30.708,30.708,0,0,1,5.183,10.35,33.065,33.065,0,0,1,1.086,11.949C253.358,151.478,236.777,166.712,218.05,166.712Zm22.356-56.238c-7.079.035-15.683.055-23.607.055-3.807,0-9.172,5.456-13.482,9.841-3.683,3.745-6.864,6.98-9.973,8.195a28.436,28.436,0,0,0-.7,4.188A25.04,25.04,0,0,0,218.061,160.6c15.655,0,29.506-12.731,30.878-28.38a26.519,26.519,0,0,0-1.679-12.092A24.4,24.4,0,0,0,240.406,110.474ZM23.643,129.1a29.486,29.486,0,0,0-.588,3.655A25.057,25.057,0,0,0,48.48,160.6c15.648,0,29.495-12.731,30.866-28.38a25.244,25.244,0,0,0,.087-3.122H70.128a19.432,19.432,0,0,1,.032,3.655,20.858,20.858,0,0,1-20.353,18.71,17.406,17.406,0,0,1-17.566-19.243,18.605,18.605,0,0,1,.544-3.122Zm15.542-.022h0a13.326,13.326,0,0,0-.849,3.677,11.638,11.638,0,0,0,2.906,8.941,11.5,11.5,0,0,0,8.587,3.644A14.64,14.64,0,0,0,64.087,132.2a13.448,13.448,0,0,0-.12-3.122H39.185ZM46.967,67h0a131.537,131.537,0,0,0-29.951,30,84.553,84.553,0,0,0-7.61,12.982A36.716,36.716,0,0,0,6.24,119.59a6.794,6.794,0,0,0,.087,3.383l156.38.032a21.822,21.822,0,0,0,8.239-1.355,16,16,0,0,0,5.627-3.942,2.452,2.452,0,0,1,.457-.49,69.533,69.533,0,0,0,5.273-6.9l.006-.008c7.214-10.206,13.247-18.816,17.447-24.9a23.187,23.187,0,0,0,3.657-19.906c-.805-3.232-3.889-12.716-6.716-21.352q-.416-1.278-.835-2.564l-.007-.023,0-.007-.017-.051-.074-.226-.037-.115c-1.634-5.015-3.485-10.7-4.817-15.039a.41.41,0,0,1-.026-.1l0-.015a.045.045,0,0,0,0-.014V26a2.719,2.719,0,0,1-.055-.3,1.591,1.591,0,0,1-.032-.327.275.275,0,0,0-.011-.07.267.267,0,0,1-.011-.071.284.284,0,0,1,.011-.071.25.25,0,0,0,.011-.07c0-.015,0-.031,0-.047l0-.023v-.006l0-.035a1.7,1.7,0,0,1,.024-.225,2.076,2.076,0,0,1,.054-.258,1.018,1.018,0,0,1,.07-.24l.009-.024,0-.011,0-.011c0-.011.009-.022.013-.034l0-.005,0-.011,0-.012,0-.008.007-.021,0-.011c.018-.049.041-.11.071-.17a.743.743,0,0,1,.079-.146l0-.007.009-.014.006-.011c.014-.022.03-.047.044-.073l0,0,.005-.008.014-.023.014-.023.009-.014c.039-.062.078-.123.117-.176a.832.832,0,0,1,.174-.229,1.178,1.178,0,0,1,.2-.206,1.282,1.282,0,0,1,.229-.2l.015-.01c.041-.024.145-.087.234-.152a.744.744,0,0,1,.148-.089l.01,0c.029-.014.06-.03.093-.048a1.631,1.631,0,0,1,.287-.117l.007,0,.039-.019a.343.343,0,0,1,.092-.036h.006a.309.309,0,0,0,.135-.022,1.755,1.755,0,0,1,.316-.065,1.274,1.274,0,0,1,.3-.044.568.568,0,0,0,.076-.005.482.482,0,0,1,.066-.005c.607,0,1.374.066,2.117.13l.023,0,.019,0,.017,0h.014l.053,0,.156.014.1.009h.011l.07.005h.006l.047,0,.288.024c.861.076,2.46.218,3.839.218a7.744,7.744,0,0,0,1.674-.134,34.706,34.706,0,0,0,1.371-8.023,28.959,28.959,0,0,0-.163-7.369l0-.012-.014-.076,0-.023,0-.013-.006-.036-.008-.044,0-.011-.008-.04c-.018-.1-.037-.2-.062-.3a14.184,14.184,0,0,0-4.3-.425,12.434,12.434,0,0,0-1.546.076,8.166,8.166,0,0,1,2.21,6.178c-.22,2.462-1.785,4.671-4.651,6.564a22.917,22.917,0,0,1-5.459,2.574,3.009,3.009,0,0,1-.927.145,3.045,3.045,0,0,1-1.5-.4,11.544,11.544,0,0,0-4.288-1.153c2.7,8.69,10.153,32.829,12.212,40.053,2.481,8.68,1.011,16.774-4.5,24.746-1.045,1.5-1.935,2.8-2.524,3.661l-.055.08-.076.111,0,.007-.045.066-.005.008-.293.429-.148.216-.1.149-.018.027-.007.011-.046.067-.01.014-.051.075-.006.009-.036.052-.542.792-.041.06-.033.049c-1.73,2.528-3.223,4.71-6.773,9.736-6.132,8.7-9.832,13.945-23.4,13.945H122.044c-6.1,0-11.136-3.951-13.148-10.312-1.531-4.862-1.2-10.794.926-16.7a42.318,42.318,0,0,1,5.329-10.037A60.862,60.862,0,0,1,124.635,67H46.967Zm174.86,20.015c-9.078,0-16.62,3.633-20.32,6.745-.036.027-.076.053-.13.09l-.012.008-.019.013-.013.008c-.038.025-.076.051-.11.076l-.746,1.066-1.025,1.465-.016.022-.074.106-.014.019-.155.221,0,0,0,.005-.2.288-.012.017-.211.3-.139.2-.01.014c-2.89,4.129-6.848,9.784-11.333,16.134a84.972,84.972,0,0,1-5.289,6.972,3.181,3.181,0,0,0,.446,1.937,1.328,1.328,0,0,0,.925.261h7.38c1.513-.056,5.871-4.5,8.212-6.892l.016-.016.086-.086c5.363-5.425,11.44-11.575,17.764-11.575,9.966,0,21.471-.028,34.195-.084l.525,0a34.149,34.149,0,0,0-4.918-7.873,24.279,24.279,0,0,0-6.4-5.378,27.891,27.891,0,0,0-8.171-3.082A47.748,47.748,0,0,0,221.827,87.011ZM108.683,26.842c-5.2,0-8.713.537-9.636,1.473a16.4,16.4,0,0,0,.827,8.18c1.5,3.2,19.857,11.208,29.1,13.26,6.472,1.45,18.586,3.112,22.145,3.587h.006l.172.023a3.032,3.032,0,0,1,2.285,4.47l-.04.074c-1.544,2.862-15.278,28.38-21.923,42.85a18.18,18.18,0,0,0-1.786,7.6h23.411a2.59,2.59,0,0,0-.37-1.066c-1.694-2.782-7.892-4.444-10.459-4.775a3.052,3.052,0,0,1-2.133-4.72l.089-.133c2.1-3.146,20.63-30.9,24.116-36.6,3.332-5.432,4.907-8.825-1.459-15.37-3.915-4.033-24.57-14.63-32.9-16.317a.341.341,0,0,1-.067-.007h-.007l-.024,0a.163.163,0,0,0-.1-.022,72.872,72.872,0,0,0-10.394-1.861A99.669,99.669,0,0,0,108.683,26.842Zm30.394,30.941L136.966,63.7a1.271,1.271,0,0,1-.134.26l0,.006-.009.015c-.021.034-.047.075-.071.121a3,3,0,0,1-2.056,2.731c-8.09,5.779-14.178,12.419-17.6,19.2-2.984,5.907-3.828,11.685-2.379,16.271,1.229,3.851,3.9,6.06,7.324,6.06H123.7a24.815,24.815,0,0,1,2.363-10.139c5.3-11.522,14.851-29.631,20.07-39.4l-.367-.052-.494-.071-.054-.007-.117-.017h-.005l-.048-.007c-1.7-.243-3.809-.544-5.967-.889h0Zm37.887-36.125c-2.639,1.12-16.283,6.852-25.784,9.66,7.838,3.952,13.9,7.747,16.228,10.148,9.2,9.486,6.334,16.208,2.3,22.822-2.917,4.741-15.123,23.105-21.876,33.209,3.475,1.03,8.078,3.022,10.274,6.657a8.663,8.663,0,0,1,1.241,4.1c3.825-.29,6.431-1.209,8.712-3.075,2.226-1.82,4.111-4.489,6.721-8.183,3.472-4.921,4.984-7.129,6.735-9.685l.013-.019.588-.858.736-1.076.035-.051.229-.336.013-.021.1-.152.008-.011c.656-.96,1.4-2.049,2.3-3.356,2.81-4.072,6.246-10.533,3.657-19.591-1.923-6.788-9.049-29.869-12.091-39.725l0-.015-.009-.028Zm-119,26.8a5.056,5.056,0,0,0-4.125,3.133l-3.32,9.3h80.976l1.48-4.145c-1.82-.309-3.656-.663-5.311-1.022a123.118,123.118,0,0,1-20.092-7.267Z" transform="translate(106.96 126.693)"/>
    <path id="Fill_19" data-name="Fill 19" class="cls-1" d="M6.218,55.657c.993-20.7,10.044-40.42,24.073-53.073L24.1,0c-14.014,13.776-23,34.1-24,55.349C-.616,70.564,2.384,82.5,6.957,90.716l3.917-5.746c-3.24-7.223-5.225-17.222-4.656-29.313" transform="translate(195.509 76.493)"/>
    <path id="Fill_21" data-name="Fill 21" class="cls-1" d="M19.018,41.846h0A14.356,14.356,0,0,1,11.9,39.968c-.215-.123-.5-.267-.707-.359a24.726,24.726,0,0,0-3.56,1.185,13.741,13.741,0,0,0-.218-6.407,13.851,13.851,0,0,1,4-.9,3.221,3.221,0,0,1,.6.052,8.638,8.638,0,0,1,2.678,1.012l.076.038a8.536,8.536,0,0,0,4.26,1.165,11.377,11.377,0,0,0,1.334-.083,8.338,8.338,0,0,0,4.709-3,20.726,20.726,0,0,0,3.8-6.358c-3.648-.306-6.4-.468-7.967-.468a13.523,13.523,0,0,0-3,1.211l-.287.138c-1.888.933-4.027,1.991-6.073,1.991a29.79,29.79,0,0,1-4.092-.327,18.4,18.4,0,0,0-4.233-8.166A21.591,21.591,0,0,0,0,17.636a30.472,30.472,0,0,1,3.527-7.466A23.648,23.648,0,0,1,8.563,4.63a21.14,21.14,0,0,1,6.326-3.445A22.952,22.952,0,0,1,22.287,0,27.3,27.3,0,0,1,26.1.275a17,17,0,0,1,6.485,2.251,16.034,16.034,0,0,1,4.5,4.1,20.467,20.467,0,0,1,3.879,10.533,24.933,24.933,0,0,0,1.621,1.915c1.7,1.907,3.169,3.553,3.036,5.515v.2a.521.521,0,0,1-.021.138c0,.016-.008.031-.011.046a.328.328,0,0,0-.022.142.4.4,0,0,1-.033.092c-.007.016-.014.031-.021.049-.038.124-.07.218-.109.315-.012.031-.021.064-.03.1a.648.648,0,0,1-.068.176c-.022.043-.045.085-.069.128s-.05.089-.072.133l0,.008a1.3,1.3,0,0,1-.181.243l-.047.058a1.672,1.672,0,0,1-.127.149,1.322,1.322,0,0,1-.134.143,1.307,1.307,0,0,0-.094.1c-.037.026-.069.052-.1.078a1.2,1.2,0,0,1-.1.074,1.563,1.563,0,0,1-.294.2,1.322,1.322,0,0,1-.206.109,2.3,2.3,0,0,1-.337.141,1.285,1.285,0,0,1-.218.054,1.5,1.5,0,0,1-.29.064l-.08.013c-.033,0-.075,0-.115.005s-.082.005-.114.005h-.5c-.026,0-.559-.052-1.442-.139h-.012c-1.326-.13-3.329-.327-5.641-.546a27.379,27.379,0,0,1-5.377,9.728c-2.639,3-5.638,4.779-8.675,5.142A17.3,17.3,0,0,1,19.018,41.846Zm4.5-36.358h0a16.779,16.779,0,0,0-5.933,1.041,15.519,15.519,0,0,0-4.957,3.037,18.7,18.7,0,0,0-3.811,4.9,26.585,26.585,0,0,0-2.492,6.643c-.055.143-.109.283-.174.424a35.721,35.721,0,0,0,6.53.849,14.417,14.417,0,0,0,3.384-1.36c1.958-.968,3.982-1.968,5.976-1.968,3.613,0,11.783.745,15.128,1.066a5.349,5.349,0,0,1-1.154-2.8,16.217,16.217,0,0,0-1.677-6.012,10.786,10.786,0,0,0-2.891-3.542,10.537,10.537,0,0,0-5.1-2.087,20.573,20.573,0,0,0-2.833-.2Z" transform="translate(241.14 40.734)"/>
    <path id="Stroke_23" data-name="Stroke 23" class="cls-2" d="M0,9.442c5.785-6.465,25.721-19.656,30.891,4.547S39.073,65.66,39.073,65.66" transform="translate(218.736 72.602)"/>
    <path id="Stroke_25" data-name="Stroke 25" class="cls-2" d="M9.878,46.918S.725,27.829,0,0" transform="translate(231.263 101.431)"/>
    <path id="Stroke_27" data-name="Stroke 27" class="cls-2" d="M5.294,0S.51,5.06,0,17.913" transform="translate(241.141 54.672)"/>
    <path id="Stroke_29" data-name="Stroke 29" class="cls-2" d="M0,0S7.108,3.807,12.55,1.269" transform="translate(241.141 64.953)"/>
    <path id="Stroke_31" data-name="Stroke 31" class="cls-2" d="M0,7.543S13.141,7.509,16.887,0" transform="translate(236.202 117.348)"/>
    <path id="Stroke_33" data-name="Stroke 33" class="cls-2" d="M3.2,0,66.492.839A3.159,3.159,0,0,1,69.6,4.2L66.835,47.69a3.157,3.157,0,0,1-2.948,2.95l-60.524.723A3.159,3.159,0,0,1,0,48.213V3.157A3.158,3.158,0,0,1,3.2,0Z" transform="translate(119.693 118.996)"/>
    <path id="Stroke_35" data-name="Stroke 35" class="cls-2" d="M0,0H68.591" transform="translate(119.693 136.357)"/>
    <path id="Stroke_37" data-name="Stroke 37" class="cls-3" d="M15.3,7.7A7.649,7.649,0,1,1,7.706,0,7.647,7.647,0,0,1,15.3,7.7Z" transform="translate(13.916 64.708)"/>
    <path id="Stroke_39" data-name="Stroke 39" class="cls-3" d="M15.3,7.7A7.649,7.649,0,1,1,7.706,0,7.647,7.647,0,0,1,15.3,7.7Z" transform="translate(119.694 327.945)"/>
    <path id="Stroke_41" data-name="Stroke 41" class="cls-3" d="M15.3,7.7A7.649,7.649,0,1,1,7.706,0,7.647,7.647,0,0,1,15.3,7.7Z" transform="translate(415.36 244.993)"/>
    <g id="Group_47" data-name="Group 47" class="cls-4" transform="translate(292.775 335.571)">
      <path id="Stroke_43" data-name="Stroke 43" class="cls-5" d="M0,0,10.7,10.858" transform="translate(1.004 0.02)"/>
      <path id="Stroke_45" data-name="Stroke 45" class="cls-5" d="M10.864,0,0,10.7" transform="translate(0.923 0.099)"/>
    </g>
    <g id="Group_52" data-name="Group 52" class="cls-4" transform="translate(153.462 0.536)">
      <path id="Stroke_48" data-name="Stroke 48" class="cls-5" d="M0,0,16.6,16.834" transform="translate(0.65 0.551)"/>
      <path id="Stroke_50" data-name="Stroke 50" class="cls-5" d="M16.844,0,0,16.587" transform="translate(0.526 0.675)"/>
    </g>
    <g id="Group_57" data-name="Group 57" class="cls-4" transform="translate(398.348 144.122)">
      <path id="Stroke_53" data-name="Stroke 53" class="cls-5" d="M0,0,16.6,16.834" transform="translate(1.064 0.017)"/>
      <path id="Stroke_55" data-name="Stroke 55" class="cls-5" d="M16.844,0,0,16.587" transform="translate(0.94 0.141)"/>
    </g>
    <path id="Stroke_58" data-name="Stroke 58" class="cls-3" d="M17.2,17.376,0,12.4,12.911,0Z" transform="translate(0.962 227.617)"/>
    <path id="Stroke_60" data-name="Stroke 60" class="cls-3" d="M0,8.638,15.684,0l-.357,17.894Z" transform="translate(357.441 58.148)"/>
  </g>
</svg>
