<svg xmlns="http://www.w3.org/2000/svg" viewBox="0 0 445.674 341.81">
  <defs>
    <style>
      .cls-1, .cls-4, .cls-6, .cls-7 {
        fill: none;
        stroke: #fff;
        stroke-miterlimit: 10;
      }

      .cls-1, .cls-7 {
        stroke-width: 6px;
      }

      .cls-2 {
        fill: #fff;
      }

      .cls-3 {
        fill: #ed3237;
      }

      .cls-4, .cls-6, .cls-7 {
        stroke-linecap: round;
      }

      .cls-4, .cls-6 {
        stroke-width: 4px;
      }

      .cls-4, .cls-5 {
        opacity: 0.6;
      }
    </style>
  </defs>
  <g id="illustration_2" data-name="illustration 2" transform="translate(2 1.869)">
    <path id="Stroke_1" data-name="Stroke 1" class="cls-1" d="M0,91.035V0H54.644V91.035" transform="translate(139.193 170.334)"/>
    <path id="Fill_2" data-name="Fill 2" class="cls-2" d="M49.65,0V5.52H27.589v44.6H22.062V5.52H0V0Z" transform="translate(255.106 211.472)"/>
    <path id="Fill_3" data-name="Fill 3" class="cls-2" d="M32.187,54.4V26.831H5.522V0H0V54.4H5.522V32.351H26.672V54.4Z" transform="translate(233.494 203.509)"/>
    <path id="Fill_4" data-name="Fill 4" class="cls-2" d="M32.187,54.4V0H26.672V26.831H0V54.4H5.522V32.351H26.672V54.4Z" transform="translate(294.184 203.509)"/>
    <path id="Stroke_5" data-name="Stroke 5" class="cls-1" d="M0,112.909V0" transform="translate(98.739 147.069)"/>
    <path id="Stroke_6" data-name="Stroke 6" class="cls-1" d="M0,0V112.909" transform="translate(339.941 147.069)"/>
    <g id="Group_44" data-name="Group 44" transform="translate(0 0.106)">
      <path id="Stroke_7" data-name="Stroke 7" class="cls-1" d="M267.223,81.068a12.984,12.984,0,0,1-9.513-4.242,15.072,15.072,0,0,1-3.939-10.244v0a4.692,4.692,0,1,0-9.359,0v0a15.025,15.025,0,0,1-3.938,10.244,12.812,12.812,0,0,1-18.8.272l-.234-.272a15.07,15.07,0,0,1-3.938-10.249,4.692,4.692,0,1,0-9.359,0,15.071,15.071,0,0,1-3.939,10.249,12.79,12.79,0,0,1-19.028,0,15.071,15.071,0,0,1-3.939-10.249A5.149,5.149,0,0,0,179.18,62.4a4.423,4.423,0,0,0-2.616-.862,4.377,4.377,0,0,0-1.821.4,5.066,5.066,0,0,0-2.858,4.645,15.071,15.071,0,0,1-3.939,10.249,12.79,12.79,0,0,1-19.028,0,15.07,15.07,0,0,1-3.938-10.249,4.692,4.692,0,1,0-9.359,0,15.044,15.044,0,0,1-3.947,10.25l-.234.272a12.8,12.8,0,0,1-18.785-.272,15.074,15.074,0,0,1-3.939-10.25,5.15,5.15,0,0,0-2.064-4.179,4.423,4.423,0,0,0-2.616-.862,4.871,4.871,0,0,0-4.68,5.041A15.07,15.07,0,0,1,95.42,76.825a12.791,12.791,0,0,1-19.029,0,15.07,15.07,0,0,1-3.938-10.249,4.692,4.692,0,1,0-9.359,0,15.075,15.075,0,0,1-3.938,10.249,12.8,12.8,0,0,1-19.02.021l-.009-.01v-.01a15.073,15.073,0,0,1-3.938-10.25,4.871,4.871,0,0,0-4.68-5.04,4.872,4.872,0,0,0-4.68,5.04h0a15.07,15.07,0,0,1-3.938,10.249,12.987,12.987,0,0,1-9.515,4.242,12.987,12.987,0,0,1-9.515-4.242A14.98,14.98,0,0,1,0,68.088L45.966,0H234.634L280.6,68.089a14.969,14.969,0,0,1-3.865,8.736A12.984,12.984,0,0,1,267.223,81.068Z" transform="translate(79.039 65.033)"/>
      <path id="Fill_9" data-name="Fill 9" class="cls-3" d="M78.762,6.473v47.4a6.478,6.478,0,0,1-6.468,6.484h-53.5a16.707,16.707,0,0,1-2.617-.192l-4.906,2.461L0,68.258V18.808A18.842,18.842,0,0,1,18.793,0h53.5a6.476,6.476,0,0,1,6.468,6.473" transform="translate(274.62 21.96)"/>
      <path id="Stroke_11" data-name="Stroke 11" class="cls-1" d="M78.762,6.473v47.4a6.478,6.478,0,0,1-6.468,6.484h-53.5a16.707,16.707,0,0,1-2.617-.192l-4.906,2.461L0,68.258V18.808A18.842,18.842,0,0,1,18.793,0h53.5A6.476,6.476,0,0,1,78.762,6.473Z" transform="translate(274.62 21.96)"/>
      <path id="Fill_13" data-name="Fill 13" class="cls-2" d="M16.977,6.744l5.6.78a1.537,1.537,0,0,1,.867,2.617L19.42,14.118a1.538,1.538,0,0,0-.433,1.362l.99,5.576a1.536,1.536,0,0,1-2.218,1.634l-5.024-2.6a1.535,1.535,0,0,0-1.429.008L6.315,22.759a1.536,1.536,0,0,1-2.239-1.606L5,15.566a1.542,1.542,0,0,0-.45-1.358L.472,10.282a1.537,1.537,0,0,1,.835-2.627L6.9,6.806a1.535,1.535,0,0,0,1.152-.848L10.526.866A1.535,1.535,0,0,1,13.28.848L15.815,5.91a1.534,1.534,0,0,0,1.161.834" transform="translate(317.704 38.914)"/>
      <path id="Fill_15" data-name="Fill 15" class="cls-2" d="M.8,14.491,2.695,0H17.98V3.259H6.274L5.43,9.781a8.249,8.249,0,0,1,2.754-.826q1.347-.14,1.992-.14a9.33,9.33,0,0,1,3.679.724,8.991,8.991,0,0,1,2.936,1.971,9.233,9.233,0,0,1,1.93,2.918,9.074,9.074,0,0,1,.705,3.563,9.879,9.879,0,0,1-.6,3.421,8.17,8.17,0,0,1-1.83,2.918,9.143,9.143,0,0,1-3.117,2.053,11.485,11.485,0,0,1-4.424.786,10.439,10.439,0,0,1-3.2-.483,8.767,8.767,0,0,1-4.887-3.865A12.047,12.047,0,0,1,0,19.441H4.424A7.026,7.026,0,0,0,6.515,22.8,4.558,4.558,0,0,0,9.493,23.99a5.173,5.173,0,0,0,2.151-.462,5.652,5.652,0,0,0,1.79-1.268,6.009,6.009,0,0,0,1.208-1.892,6.245,6.245,0,0,0,.441-2.374,5.775,5.775,0,0,0-.483-2.374,6.156,6.156,0,0,0-1.266-1.873,5.851,5.851,0,0,0-1.791-1.227,5.052,5.052,0,0,0-2.05-.443A5.89,5.89,0,0,0,7,12.7a5.867,5.867,0,0,0-2.212,1.792Z" transform="translate(294.622 37.925)"/>
      <path id="Stroke_17" data-name="Stroke 17" class="cls-4" d="M16.357,8.184A8.178,8.178,0,1,1,8.179,0,8.181,8.181,0,0,1,16.357,8.184Z" transform="translate(19.652 171.203)"/>
      <path id="Stroke_19" data-name="Stroke 19" class="cls-4" d="M16.357,8.184A8.178,8.178,0,1,1,8.179,0,8.181,8.181,0,0,1,16.357,8.184Z" transform="translate(396.574 9.731)"/>
      <path id="Stroke_21" data-name="Stroke 21" class="cls-4" d="M16.357,8.184A8.178,8.178,0,1,1,8.179,0,8.181,8.181,0,0,1,16.357,8.184Z" transform="translate(202.983 321.467)"/>
      <g id="Group_27" data-name="Group 27" class="cls-5" transform="translate(138.467)">
        <path id="Stroke_23" data-name="Stroke 23" class="cls-6" d="M0,0,17.876,17.89" transform="translate(0.726 0.026)"/>
        <path id="Stroke_25" data-name="Stroke 25" class="cls-6" d="M17.876,0,0,17.89" transform="translate(0.726 0.026)"/>
      </g>
      <g id="Group_32" data-name="Group 32" class="cls-5" transform="translate(0 256.321)">
        <path id="Stroke_28" data-name="Stroke 28" class="cls-6" d="M0,0,17.876,17.89" transform="translate(0 0.394)"/>
        <path id="Stroke_30" data-name="Stroke 30" class="cls-6" d="M17.876,0,0,17.89" transform="translate(0 0.394)"/>
      </g>
      <g id="Group_37" data-name="Group 37" class="cls-5" transform="translate(395.62 148.022)">
        <path id="Stroke_33" data-name="Stroke 33" class="cls-6" d="M0,0,17.876,17.89" transform="translate(0.194 0.432)"/>
        <path id="Stroke_35" data-name="Stroke 35" class="cls-6" d="M17.876,0,0,17.89" transform="translate(0.194 0.432)"/>
      </g>
      <path id="Stroke_38" data-name="Stroke 38" class="cls-7" d="M0,0H322.613" transform="translate(58.033 261.262)"/>
      <path id="Stroke_40" data-name="Stroke 40" class="cls-4" d="M18.389,18.6,0,13.275,13.8,0Z" transform="translate(17.62 42.67)"/>
      <path id="Stroke_42" data-name="Stroke 42" class="cls-4" d="M18.389,18.6,0,13.275,13.8,0Z" transform="translate(422.513 248.504)"/>
    </g>
  </g>
</svg>
