<svg xmlns="http://www.w3.org/2000/svg" xmlns:xlink="http://www.w3.org/1999/xlink" viewBox="0 0 520.896 316.778">
  <defs>
    <style>
      .cls-1, .cls-14, .cls-16, .cls-3, .cls-4, .cls-6 {
        fill: none;
      }

      .cls-2 {
        fill: #ed3237;
      }

      .cls-14, .cls-16, .cls-3, .cls-4, .cls-6 {
        stroke: #fff;
        stroke-miterlimit: 10;
      }

      .cls-14, .cls-3 {
        stroke-width: 6px;
      }

      .cls-14, .cls-4, .cls-6 {
        stroke-linecap: round;
      }

      .cls-4, .cls-6 {
        stroke-width: 4px;
      }

      .cls-4, .cls-5 {
        opacity: 0.6;
      }

      .cls-7 {
        fill: #fff;
      }

      .cls-8 {
        clip-path: url(#clip-path);
      }

      .cls-9 {
        clip-path: url(#clip-path-2);
      }

      .cls-10 {
        clip-path: url(#clip-path-3);
      }

      .cls-11 {
        clip-path: url(#clip-path-4);
      }

      .cls-12 {
        clip-path: url(#clip-path-5);
      }

      .cls-13 {
        clip-path: url(#clip-path-6);
      }

      .cls-15 {
        fill: #f5a623;
      }

      .cls-16 {
        stroke-width: 2px;
      }
    </style>
    <clipPath id="clip-path">
      <path id="Clip_35" data-name="Clip 35" class="cls-1" d="M52.077,0H0V23.149H52.077V0Z" transform="translate(0.961 0.735)"/>
    </clipPath>
    <clipPath id="clip-path-2">
      <path id="Clip_38" data-name="Clip 38" class="cls-1" d="M0,17.362H52.077V0H0V17.362Z" transform="translate(0.961 0.207)"/>
    </clipPath>
    <clipPath id="clip-path-3">
      <path id="Clip_41" data-name="Clip 41" class="cls-1" d="M57.864,11.643V0H0V11.643Z" transform="translate(0.309 0.057)"/>
    </clipPath>
    <clipPath id="clip-path-4">
      <path id="Clip_45" data-name="Clip 45" class="cls-1" d="M52.077,0H0V23.149H52.077V0Z" transform="translate(0.832 0.735)"/>
    </clipPath>
    <clipPath id="clip-path-5">
      <path id="Clip_48" data-name="Clip 48" class="cls-1" d="M0,17.362H52.077V0H0V17.362Z" transform="translate(0.832 0.207)"/>
    </clipPath>
    <clipPath id="clip-path-6">
      <path id="Clip_51" data-name="Clip 51" class="cls-1" d="M57.864,11.643V0H0V11.643Z" transform="translate(0.181 0.057)"/>
    </clipPath>
  </defs>
  <g id="illusrtation_3" data-name="illusrtation 3" transform="translate(2 1.879)">
    <path id="Fill_1" data-name="Fill 1" class="cls-2" d="M9.039,177.963A9.04,9.04,0,0,1,0,168.921V9.042A9.04,9.04,0,0,1,9.039,0h179.4a9.041,9.041,0,0,1,9.04,9.042V168.921a9.041,9.041,0,0,1-9.04,9.042Z" transform="translate(180.656 82.142)"/>
    <path id="Stroke_3" data-name="Stroke 3" class="cls-3" d="M188.44,177.963H9.039A9.04,9.04,0,0,1,0,168.921V9.042A9.04,9.04,0,0,1,9.039,0h179.4a9.041,9.041,0,0,1,9.04,9.042V168.921A9.041,9.041,0,0,1,188.44,177.963Z" transform="translate(180.656 82.142)"/>
    <path id="Stroke_5" data-name="Stroke 5" class="cls-4" d="M15.76,7.94A7.88,7.88,0,1,1,7.938,0,7.881,7.881,0,0,1,15.76,7.94Z" transform="translate(0 135.403)"/>
    <path id="Stroke_7" data-name="Stroke 7" class="cls-4" d="M15.76,7.94A7.88,7.88,0,1,1,7.938,0,7.881,7.881,0,0,1,15.76,7.94Z" transform="translate(384.982 23.337)"/>
    <g id="Group_13" data-name="Group 13" class="cls-5" transform="translate(207.424 0.02)">
      <path id="Stroke_9" data-name="Stroke 9" class="cls-6" d="M0,0,17.1,17.355" transform="translate(0.623 0.101)"/>
      <path id="Stroke_11" data-name="Stroke 11" class="cls-6" d="M17.352,0,0,17.1" transform="translate(0.496 0.228)"/>
    </g>
    <g id="Group_18" data-name="Group 18" class="cls-5" transform="translate(93.061 255.827)">
      <path id="Stroke_14" data-name="Stroke 14" class="cls-6" d="M0,0,17.1,17.355" transform="translate(1.087 0.236)"/>
      <path id="Stroke_16" data-name="Stroke 16" class="cls-6" d="M17.352,0,0,17.1" transform="translate(0.96 0.364)"/>
    </g>
    <g id="Group_23" data-name="Group 23" class="cls-5" transform="translate(498.939 76.399)">
      <path id="Stroke_19" data-name="Stroke 19" class="cls-6" d="M0,0,17.1,17.355" transform="translate(0.733 0.341)"/>
      <path id="Stroke_21" data-name="Stroke 21" class="cls-6" d="M17.352,0,0,17.1" transform="translate(0.605 0.468)"/>
    </g>
    <path id="Fill_24" data-name="Fill 24" class="cls-7" d="M101.55,71.2h-90.4a3.168,3.168,0,0,1-2.993-2.262L.121,41.4A3.168,3.168,0,0,1,.63,38.642,3.214,3.214,0,0,1,3.138,37.4h7.644A19.838,19.838,0,0,1,30.108,20.688,24.407,24.407,0,0,1,45.571,2.52,24.137,24.137,0,0,1,65.124,3.78a20.67,20.67,0,0,1,22.569-.823A20.74,20.74,0,0,1,97.858,22.066,22.359,22.359,0,0,1,108.419,37.4H109.6a3.1,3.1,0,0,1,2.509,1.243,3.068,3.068,0,0,1,.472,2.753l-8.033,27.542A3.079,3.079,0,0,1,101.55,71.2ZM7.333,43.662,13.523,64.92h85.69l6.236-21.258ZM30.362,26.925A13.535,13.535,0,0,0,21.878,29.9a13.655,13.655,0,0,0-4.739,7.474H43.563a14.024,14.024,0,0,0-3.953-7.2A13.1,13.1,0,0,0,30.362,26.925ZM53.947,7.26a17.986,17.986,0,0,0-11.4,4.073,18.169,18.169,0,0,0-6.265,10.211A20.068,20.068,0,0,1,49.948,37.372H64.26a22.317,22.317,0,0,1,7.682-13.294A18.058,18.058,0,0,0,53.947,7.26ZM86.368,25.1A16.128,16.128,0,0,0,70.722,37.289H102.01A16.11,16.11,0,0,0,86.368,25.1Zm-9.3-18.847a14.887,14.887,0,0,0-6.4,1.465A24.281,24.281,0,0,1,77.751,20.55a22.626,22.626,0,0,1,8.586-1.708,22.2,22.2,0,0,1,5.195.621A14.554,14.554,0,0,0,77.072,6.256Z" transform="translate(216.596 129.785)"/>
    <g id="Group_29" data-name="Group 29" transform="translate(392.424 112.284)">
      <path id="Fill_26" data-name="Fill 26" class="cls-2" d="M0,0H101.122a5.561,5.561,0,0,1,5.561,5.562V104a5.57,5.57,0,0,1-5.561,5.573H0" transform="translate(0.437 0.904)"/>
      <path id="Stroke_28" data-name="Stroke 28" class="cls-3" d="M0,0H101.122a5.561,5.561,0,0,1,5.561,5.562V104a5.57,5.57,0,0,1-5.561,5.573H0" transform="translate(0.437 0.904)"/>
    </g>
    <g id="Group_33" data-name="Group 33" transform="translate(58.303 112.284)">
      <path id="Fill_30" data-name="Fill 30" class="cls-2" d="M106.683,0H5.561A5.561,5.561,0,0,0,0,5.562V104a5.57,5.57,0,0,0,5.561,5.573H106.683" transform="translate(0.437 0.904)"/>
      <path id="Stroke_32" data-name="Stroke 32" class="cls-3" d="M106.683,0H5.561A5.561,5.561,0,0,0,0,5.562V104a5.57,5.57,0,0,0,5.561,5.573H106.683" transform="translate(0.437 0.904)"/>
    </g>
    <g id="Group_43" data-name="Group 43" transform="translate(90.818 135.834)">
      <g id="Group_36" data-name="Group 36" transform="translate(2.242)">
        <path id="Clip_35-2" data-name="Clip 35" class="cls-1" d="M52.077,0H0V23.149H52.077V0Z" transform="translate(0.961 0.735)"/>
        <g id="Group_36-2" data-name="Group 36" class="cls-8">
          <path id="Fill_34" data-name="Fill 34" class="cls-7" d="M52.077,23.15H0C0,15.41,2.365,9.5,7.029,5.584,11.44,1.879,17.835,0,26.038,0s14.6,1.879,19.01,5.584c4.664,3.917,7.028,9.827,7.029,17.565ZM26.038,5.788c-6.815,0-11.963,1.417-15.3,4.211A13.29,13.29,0,0,0,6.4,17.363H45.677A13.277,13.277,0,0,0,41.339,10C38,7.2,32.853,5.788,26.038,5.788Z" transform="translate(0.961 0.734)"/>
        </g>
      </g>
      <g id="Group_39" data-name="Group 39" transform="translate(2.242 45.979)">
        <path id="Clip_38-2" data-name="Clip 38" class="cls-1" d="M0,17.362H52.077V0H0V17.362Z" transform="translate(0.961 0.207)"/>
        <g id="Group_39-2" data-name="Group 39" class="cls-9">
          <path id="Fill_37" data-name="Fill 37" class="cls-7" d="M26.038,17.363c-12.473,0-18.364-.879-21.735-3.243C.686,11.583,0,7.2,0,0H52.077c0,7.23-.688,11.627-4.316,14.156C45.977,15.4,43.479,16.208,39.9,16.7A104.825,104.825,0,0,1,26.038,17.363ZM6.075,5.787c.256,1.963.717,3.04,1.543,3.6,2.807,1.936,11.318,2.184,18.419,2.184,3.186,0,7.3-.04,10.85-.354,3.845-.34,6.321-.929,7.57-1.8.8-.58,1.25-1.632,1.543-3.632Z" transform="translate(0.961 0.207)"/>
        </g>
      </g>
      <g id="Group_42" data-name="Group 42" transform="translate(0 29.157)">
        <path id="Clip_41-2" data-name="Clip 41" class="cls-1" d="M57.864,11.643V0H0V11.643Z" transform="translate(0.309 0.057)"/>
        <g id="Group_42-2" data-name="Group 42" class="cls-10">
          <path id="Fill_40" data-name="Fill 40" class="cls-7" d="M54.971,5.855c-1.221,0-1.736-.482-3.053-1.963C50.471,2.252,48.448,0,44.555,0s-5.882,2.252-7.363,3.892c-1.316,1.48-1.832,1.963-3.052,1.963S32.4,5.373,31.088,3.892C29.64,2.252,27.617,0,23.724,0s-5.882,2.252-7.363,3.892c-1.316,1.48-1.832,1.963-3.051,1.963s-1.736-.482-3.053-1.963C8.809,2.252,6.786,0,2.894,0a2.893,2.893,0,1,0,0,5.787c1.22,0,1.736.483,3.052,1.964,1.447,1.64,3.471,3.892,7.364,3.892S19.192,9.39,20.673,7.75c1.315-1.48,1.832-1.964,3.051-1.964s1.737.483,3.053,1.964c1.446,1.64,3.471,3.892,7.363,3.892S40.022,9.39,41.5,7.75c1.315-1.48,1.831-1.964,3.051-1.964s1.736.483,3.053,1.964c1.446,1.64,3.471,3.892,7.363,3.892a2.894,2.894,0,1,0,0-5.788" transform="translate(0.309 0.057)"/>
        </g>
      </g>
    </g>
    <g id="Group_53" data-name="Group 53" transform="translate(417.091 135.834)">
      <g id="Group_46" data-name="Group 46" transform="translate(2.242)">
        <path id="Clip_45-2" data-name="Clip 45" class="cls-1" d="M52.077,0H0V23.149H52.077V0Z" transform="translate(0.832 0.735)"/>
        <g id="Group_46-2" data-name="Group 46" class="cls-11">
          <path id="Fill_44" data-name="Fill 44" class="cls-7" d="M52.077,23.15H0C0,15.41,2.365,9.5,7.029,5.584,11.44,1.879,17.835,0,26.038,0s14.6,1.879,19.01,5.584c4.664,3.917,7.028,9.827,7.029,17.565ZM26.038,5.788c-6.815,0-11.963,1.417-15.3,4.211A13.29,13.29,0,0,0,6.4,17.363H45.677A13.277,13.277,0,0,0,41.339,10C38,7.2,32.853,5.788,26.038,5.788Z" transform="translate(0.832 0.734)"/>
        </g>
      </g>
      <g id="Group_49" data-name="Group 49" transform="translate(2.242 45.979)">
        <path id="Clip_48-2" data-name="Clip 48" class="cls-1" d="M0,17.362H52.077V0H0V17.362Z" transform="translate(0.832 0.207)"/>
        <g id="Group_49-2" data-name="Group 49" class="cls-12">
          <path id="Fill_47" data-name="Fill 47" class="cls-7" d="M26.038,17.363c-12.473,0-18.364-.879-21.735-3.243C.686,11.583,0,7.2,0,0H52.077c0,7.23-.688,11.627-4.316,14.156C45.977,15.4,43.479,16.208,39.9,16.7A104.825,104.825,0,0,1,26.038,17.363ZM6.075,5.787c.256,1.963.717,3.04,1.543,3.6,2.807,1.936,11.318,2.184,18.419,2.184,3.186,0,7.3-.04,10.85-.354,3.845-.34,6.321-.929,7.57-1.8.8-.58,1.25-1.632,1.543-3.632Z" transform="translate(0.832 0.207)"/>
        </g>
      </g>
      <g id="Group_52" data-name="Group 52" transform="translate(0 29.157)">
        <path id="Clip_51-2" data-name="Clip 51" class="cls-1" d="M57.864,11.643V0H0V11.643Z" transform="translate(0.181 0.057)"/>
        <g id="Group_52-2" data-name="Group 52" class="cls-13">
          <path id="Fill_50" data-name="Fill 50" class="cls-7" d="M54.971,5.855c-1.221,0-1.736-.482-3.053-1.963C50.471,2.252,48.448,0,44.555,0s-5.882,2.252-7.363,3.892c-1.316,1.48-1.832,1.963-3.052,1.963S32.4,5.373,31.088,3.892C29.64,2.252,27.617,0,23.724,0s-5.882,2.252-7.363,3.892c-1.316,1.48-1.832,1.963-3.052,1.963s-1.735-.482-3.052-1.963C8.809,2.252,6.786,0,2.894,0a2.893,2.893,0,1,0,0,5.787c1.22,0,1.736.483,3.052,1.964,1.447,1.64,3.471,3.892,7.363,3.892S19.192,9.39,20.673,7.75c1.315-1.48,1.832-1.964,3.051-1.964s1.737.483,3.053,1.964c1.446,1.64,3.471,3.892,7.363,3.892S40.022,9.39,41.5,7.75c1.315-1.48,1.831-1.964,3.051-1.964s1.736.483,3.053,1.964c1.446,1.64,3.471,3.892,7.363,3.892a2.894,2.894,0,1,0,0-5.788" transform="translate(0.18 0.057)"/>
        </g>
      </g>
    </g>
    <g id="Group_57" data-name="Group 57" transform="translate(230.97 189.663)">
      <path id="Fill_54" data-name="Fill 54" class="cls-2" d="M101.757,121.467V48.218a8.755,8.755,0,0,0-8.766-8.793,8.6,8.6,0,0,0-8.434,8.6V43.883a8.733,8.733,0,0,0-8.38-8.8,8.6,8.6,0,0,0-8.76,7.6V36.751a8.758,8.758,0,0,0-8.767-8.794,8.6,8.6,0,0,0-8.434,8.6L50.157,8.8A8.758,8.758,0,0,0,41.392,0a8.6,8.6,0,0,0-8.434,8.6V72.439L18.65,58.129a10.747,10.747,0,0,0-15.2,0L.787,60.789a2.689,2.689,0,0,0,0,3.8L32.958,96.767v24.7" transform="translate(0.684 0.769)"/>
      <path id="Stroke_56" data-name="Stroke 56" class="cls-14" d="M101.757,121.467V48.218a8.755,8.755,0,0,0-8.766-8.793,8.6,8.6,0,0,0-8.434,8.6V43.883a8.733,8.733,0,0,0-8.38-8.8,8.6,8.6,0,0,0-8.76,7.6V36.751a8.758,8.758,0,0,0-8.767-8.794,8.6,8.6,0,0,0-8.434,8.6L50.157,8.8A8.758,8.758,0,0,0,41.392,0a8.6,8.6,0,0,0-8.434,8.6V72.439L18.65,58.129a10.747,10.747,0,0,0-15.2,0L.787,60.789a2.689,2.689,0,0,0,0,3.8L32.958,96.767v24.7" transform="translate(0.684 0.769)"/>
    </g>
    <path id="Fill_58" data-name="Fill 58" class="cls-15" d="M6.5,0A17.407,17.407,0,0,1,3.829,5.966,21.144,21.144,0,0,1,.286,9.891a6,6,0,0,1,3.33-7.334A5.435,5.435,0,0,0,6.5,0" transform="translate(283.13 98.689)"/>
    <path id="Fill_60" data-name="Fill 60" class="cls-15" d="M24.269,51.839a6.527,6.527,0,0,1-2.52.514,6.61,6.61,0,0,1-6.095-4.112c-.062-.159-.122-.331-.184-.49a23.048,23.048,0,0,0,3.867-4.284,19,19,0,0,0,2.913-6.512,3.677,3.677,0,0,0,.257-1.359q-.109.68-.257,1.359A5.934,5.934,0,0,1,19.1,39.746a6.552,6.552,0,0,0-3.635,8,24.611,24.611,0,0,1-6.339,4,6.384,6.384,0,0,1-2.582.526A6.532,6.532,0,0,1,3.989,39.733c1.2-.515,7.172-3.439,5.153-9.279l-.918-2.68c-3.782-10.858-6.279-18.031-.1-25.4A6.443,6.443,0,0,1,13.107,0a6.689,6.689,0,0,1,6.034,3.88,6.4,6.4,0,0,1-.955,6.879c-.6.71-.869,1.409-.514,3.269H19.7a13.77,13.77,0,0,1,2.044-3.1,6.556,6.556,0,0,1,4.98-2.338,6.738,6.738,0,0,1,6.107,3.966c1.157,2.533.145,4.1-.7,6.356-1.186,3.158.818,6.2,1.815,9.091l.734,2.216c3.757,11-4.173,18.96-10.415,21.617" transform="translate(267.749 62.638)"/>
    <path id="Fill_62" data-name="Fill 62" class="cls-7" d="M2.116,41.623h0a2.088,2.088,0,0,0,.817-.166c4.888-2.08,13.153-8.734,9.546-19.211L11.6,19.667C8.136,9.727,7.277,6.713,10.025,3.447A2.093,2.093,0,0,0,6.794.786C2.41,6.005,4.151,11.017,7.632,21.018l.882,2.558c3.25,9.439-6.8,13.868-7.237,14.055a2.077,2.077,0,0,0,.839,3.992" transform="translate(272.62 64.606)"/>
    <path id="Stroke_64" data-name="Stroke 64" class="cls-16" d="M2.116,41.623h0a2.088,2.088,0,0,0,.817-.166c4.888-2.08,13.153-8.734,9.546-19.211L11.6,19.667C8.136,9.727,7.277,6.713,10.025,3.447A2.093,2.093,0,0,0,6.794.786C2.41,6.005,4.151,11.017,7.632,21.018l.882,2.558c3.25,9.439-6.8,13.868-7.237,14.055A2.077,2.077,0,0,0,2.116,41.623Z" transform="translate(272.62 64.606)"/>
    <path id="Fill_66" data-name="Fill 66" class="cls-7" d="M.169,32.148h0a2.074,2.074,0,0,1,1.09-2.724c.8-.354,7.637-3.556,5.308-10.4l-.692-2.079C3.231,9.256,1.678,5.035,5.308.773A2.141,2.141,0,0,1,8.56,3.558c-1.972,2.349-1.3,4.637,1.3,12.184l.693,2.079c2.894,8.484-3.734,13.849-7.637,15.512A2.106,2.106,0,0,1,.169,32.148" transform="translate(287.267 76.177)"/>
    <path id="Stroke_68" data-name="Stroke 68" class="cls-16" d="M.169,32.148h0a2.074,2.074,0,0,1,1.09-2.724c.8-.354,7.637-3.556,5.308-10.4l-.692-2.079C3.231,9.256,1.678,5.035,5.308.773A2.141,2.141,0,0,1,8.56,3.558c-1.972,2.349-1.3,4.637,1.3,12.184l.693,2.079c2.894,8.484-3.734,13.849-7.637,15.512A2.106,2.106,0,0,1,.169,32.148Z" transform="translate(287.267 76.177)"/>
    <path id="Stroke_70" data-name="Stroke 70" class="cls-4" d="M3.756,0,17.519,12.286,0,18.064Z" transform="translate(421.995 277.188)"/>
    <path id="Stroke_72" data-name="Stroke 72" class="cls-4" d="M17.72,17.914,0,12.784,13.3,0Z" transform="translate(103.222 34.424)"/>
  </g>
</svg>
